<?xml version="1.0" encoding="UTF-8"?>
<svg width="752pt" height="752pt" version="1.1" viewBox="0 0 752 752" xmlns="http://www.w3.org/2000/svg">
 <path d="m592.74 255.98c-0.22266-3.1836-0.51953-6.2148-0.96094-9.1758-7.6953-50.094-51.723-87.832-102.56-87.832h-226.43c-25.012 0-49.141 9.0273-67.855 25.309-18.645 15.98-31.004 38.254-34.629 62.453-0.44531 3.0352-0.80469 6.0664-1.0352 9.25-0.37109 2.6641-0.37109 4.957-0.37109 6.8086v226.5c0 1.7773 0 4.0703 0.37109 6.7344 0.22266 3.1836 0.59375 6.2148 0.96094 9.1016 7.6211 50.098 51.648 87.91 102.56 87.91h226.43c24.938 0 49.059-9.0273 67.855-25.309 18.656-16.133 31.004-38.332 34.637-62.453 0.51172-2.9609 0.80469-6.0664 1.0352-9.25 0.37109-2.6641 0.37109-4.957 0.37109-6.7344l0.003907-226.51c-0.007813-1.8477-0.007813-4.1445-0.37891-6.8086zm-115.43 52.836 14.422 16.281 19.84-8.7305-10.953 18.797 14.43 16.207-21.164-4.6602-10.945 18.797-2.1445-21.68-21.238-4.5859 19.98-8.7305zm-185.81 263.73h-28.711c-44.324 0-80.73-34.777-83.023-78.512-0.22266-1.6289-0.22266-3.1094-0.22266-4.7344v-226.58c0-1.6289 0-3.1094 0.22266-4.7344 2.293-43.734 38.699-78.512 83.023-78.512h28.711zm153.18-106.78c-49.504 0-89.609-40.18-89.609-89.758 0-40.105 26.27-73.996 62.453-85.539-1.5547 1.1797-3.0352 2.2891-4.5156 3.6211-33.891 30.191-36.926 82.211-6.8086 116.1 30.117 33.965 82.062 37.074 115.95 6.8828 1.4062-1.2578 2.6641-2.5898 3.9961-3.9219-14.207 31.004-45.211 52.613-81.469 52.613z"/>
</svg>
